<svg width="115" height="28" viewBox="0 0 115 28" fill="none" xmlns="http://www.w3.org/2000/svg">
<mask id="mask0_1872_179" style="mask-type:alpha" maskUnits="userSpaceOnUse" x="0" y="0" width="115" height="28">
<path d="M55.2634 5.50611C58.1993 5.49377 61.2588 5.27428 64.021 6.34505C68.5367 8.09563 70.4545 12.6225 70.1345 17.2318C69.8583 21.2114 67.9463 24.4242 64.2136 26.0138C61.2499 27.2192 57.7415 26.9265 54.5368 26.9219C54.2879 26.4839 53.8058 25.2901 53.5855 24.7692L51.7984 20.4816C51.5255 19.8303 50.3462 17.309 50.3088 16.8882C50.2597 16.3363 50.2981 14.1505 50.2985 13.4598C50.3089 10.8134 50.3021 8.16686 50.2783 5.52055L55.2634 5.50611Z" fill="#252532"/>
<path d="M56.5557 10.6499C58.3734 10.6593 60.7927 10.6868 62.165 12.0272C64.2433 14.0571 64.2826 18.3118 62.2967 20.4122C60.7183 21.8445 58.5876 21.7422 56.5666 21.7568L56.5557 10.6499Z" fill="#FEFEFE"/>
<path d="M37.2868 5.50636C39.5079 5.45957 41.746 5.54637 43.9772 5.49291C46.8772 12.6629 49.8456 19.8051 52.8819 26.9186C50.7916 26.9571 48.5054 26.9436 46.4144 26.9152C45.9888 26.0922 45.4187 24.553 45.02 23.6351L43.9605 23.6162C41.3586 23.6391 38.6067 23.5599 36.0275 23.6377C35.6257 24.7352 35.1745 25.818 34.7701 26.932L28.29 26.9234C28.3867 26.6484 28.5044 26.3819 28.6159 26.1126C29.4372 24.1303 30.323 22.1752 31.1462 20.1938L34.0798 13.217C35.1313 10.6396 36.2004 8.06932 37.2868 5.50636Z" fill="#252532"/>
<path d="M40.5476 11.0173C40.5588 11.0277 40.5701 11.0381 40.5814 11.0486C41.3905 13.3125 42.257 15.5829 43.0236 17.8625C43.5371 19.3895 41.9281 20.3719 40.5778 20.4545C39.5419 20.4207 38.7081 20.0473 38.2042 19.0785C38.111 18.8938 37.9652 18.4242 38.012 18.221C38.2131 17.3459 38.6102 16.4067 38.9177 15.5645L40.5476 11.0173Z" fill="#FEFEFE"/>
<path d="M15.3958 5.50585L21.6518 5.51286C24.3503 5.52075 27.8417 5.23469 29.9791 7.13896C32.7483 9.60612 32.699 15.03 30.2958 17.7299C28.751 19.4653 26.6992 19.8377 24.5104 19.9721C23.2822 19.9787 22.0539 19.9768 20.8258 19.9666L20.8347 26.9289L14.5764 26.9247L14.5605 5.5193L15.3958 5.50585Z" fill="#252532"/>
<path d="M20.8486 10.7023C22.5247 10.6611 25.3997 10.3289 25.5767 12.7306C25.6356 13.5307 25.4776 14.0133 24.9665 14.6291C23.9098 15.4931 22.2259 15.2648 20.8619 15.2462L20.8486 10.7023Z" fill="#FEFEFE"/>
<path d="M98.2406 5.00349C100.099 4.96226 102.311 5.27088 103.583 6.77096C104.7 8.08711 104.586 9.99927 104.588 11.6173C104.589 12.3732 104.594 13.1754 104.533 13.9239C104.079 13.5424 103.573 12.9417 103.148 12.5025C101.966 11.2832 100.679 10.7831 99.0127 10.7421C95.6753 10.66 93.1411 12.8693 93.1548 16.2786C93.1387 17.7563 93.7096 19.3755 94.7841 20.4017C97.0641 22.5797 101.345 22.4757 103.405 20.015C103.815 19.5247 104.219 19.0164 104.655 18.5719C104.73 19.3106 104.693 20.5645 104.691 21.3431C104.695 22.9033 104.743 24.4311 103.656 25.6853C102.596 26.9077 100.736 27.2799 99.1981 27.373C95.9756 27.5637 92.5604 26.7569 90.1078 24.5665C85.6519 20.5871 85.3156 13.115 89.3722 8.73246C91.836 6.07082 94.7145 5.16985 98.2406 5.00349Z" fill="#252532"/>
<path d="M81.8321 5.5C84.0911 5.41499 86.8805 5.48444 89.1848 5.46866C88.7202 6.38184 87.7186 7.93249 87.1656 8.83745L83.7624 14.4132L81.3776 18.3314L77 27C74.8839 27.0158 72.1162 27.016 70 27L75 18C75 18 72.8106 14.5949 71.7625 12.8267C70.3019 10.366 68.8142 7.92138 67.2998 5.49344C68.9835 5.45866 70.6819 5.49856 72.367 5.47533C73.053 5.46577 73.7976 5.46466 74.4788 5.5249C75.4141 7.50152 76.5054 9.4329 77.4794 11.3936C77.685 11.8075 77.9088 12.2211 78.1332 12.6253C79.368 10.3246 80.6389 7.82669 81.8321 5.5Z" fill="#252532"/>
<path d="M0.04094 5.52003C0.924951 5.49269 1.8994 5.50947 2.79052 5.50625C6.19925 5.47769 9.60812 5.47947 13.0169 5.51158C13.0399 7.27416 13.0264 9.06196 13.0274 10.8264L6.02131 10.8179L6.02252 13.6633L6.02577 18.7187C6.00734 21.4489 6.06205 24.202 6.05316 26.9389C4.06393 26.9073 2.01456 26.9297 0.0204692 26.9267C0.0246923 19.8161 -0.0399207 12.6229 0.04094 5.52003Z" fill="#252532"/>
<path d="M110 0C112.761 0 115 2.23858 115 5C115 7.76142 112.761 10 110 10C107.239 10 105 7.76142 105 5C105 2.23858 107.239 0 110 0ZM110 3.33301C109.08 3.33301 108.333 4.07953 108.333 5C108.333 5.92047 109.08 6.66699 110 6.66699C110.92 6.66699 111.667 5.92047 111.667 5C111.667 4.07953 110.92 3.33301 110 3.33301Z" fill="#252532"/>
</mask>
<g mask="url(#mask0_1872_179)">
<rect x="-2" y="-3" width="118" height="32" fill="url(#paint0_linear_1872_179)"/>
</g>
<mask id="mask1_1872_179" style="mask-type:alpha" maskUnits="userSpaceOnUse" x="0" y="0" width="115" height="28">
<path d="M55.2634 5.50611C58.1993 5.49377 61.2588 5.27428 64.021 6.34505C68.5367 8.09563 70.4545 12.6225 70.1345 17.2318C69.8583 21.2114 67.9463 24.4242 64.2136 26.0138C61.2499 27.2192 57.7415 26.9265 54.5368 26.9219C54.2879 26.4839 53.8058 25.2901 53.5855 24.7692L51.7984 20.4816C51.5255 19.8303 50.3462 17.309 50.3088 16.8882C50.2597 16.3363 50.2981 14.1505 50.2985 13.4598C50.3089 10.8134 50.3021 8.16686 50.2783 5.52055L55.2634 5.50611Z" fill="#252532"/>
<path d="M56.5557 10.6499C58.3734 10.6593 60.7927 10.6868 62.165 12.0272C64.2433 14.0571 64.2826 18.3118 62.2967 20.4122C60.7183 21.8445 58.5876 21.7422 56.5666 21.7568L56.5557 10.6499Z" fill="#FEFEFE"/>
<path d="M37.2868 5.50636C39.5079 5.45957 41.746 5.54637 43.9772 5.49291C46.8772 12.6629 49.8456 19.8051 52.8819 26.9186C50.7916 26.9571 48.5054 26.9436 46.4144 26.9152C45.9888 26.0922 45.4187 24.553 45.02 23.6351L43.9605 23.6162C41.3586 23.6391 38.6067 23.5599 36.0275 23.6377C35.6257 24.7352 35.1745 25.818 34.7701 26.932L28.29 26.9234C28.3867 26.6484 28.5044 26.3819 28.6159 26.1126C29.4372 24.1303 30.323 22.1752 31.1462 20.1938L34.0798 13.217C35.1313 10.6396 36.2004 8.06932 37.2868 5.50636Z" fill="#252532"/>
<path d="M40.5476 11.0173C40.5588 11.0277 40.5701 11.0381 40.5814 11.0486C41.3905 13.3125 42.257 15.5829 43.0236 17.8625C43.5371 19.3895 41.9281 20.3719 40.5778 20.4545C39.5419 20.4207 38.7081 20.0473 38.2042 19.0785C38.111 18.8938 37.9652 18.4242 38.012 18.221C38.2131 17.3459 38.6102 16.4067 38.9177 15.5645L40.5476 11.0173Z" fill="#FEFEFE"/>
<path d="M15.3958 5.50585L21.6518 5.51286C24.3503 5.52075 27.8417 5.23469 29.9791 7.13896C32.7483 9.60612 32.699 15.03 30.2958 17.7299C28.751 19.4653 26.6992 19.8377 24.5104 19.9721C23.2822 19.9787 22.0539 19.9768 20.8258 19.9666L20.8347 26.9289L14.5764 26.9247L14.5605 5.5193L15.3958 5.50585Z" fill="#252532"/>
<path d="M20.8486 10.7023C22.5247 10.6611 25.3997 10.3289 25.5767 12.7306C25.6356 13.5307 25.4776 14.0133 24.9665 14.6291C23.9098 15.4931 22.2259 15.2648 20.8619 15.2462L20.8486 10.7023Z" fill="#FEFEFE"/>
<path d="M98.2406 5.00349C100.099 4.96226 102.311 5.27088 103.583 6.77096C104.7 8.08711 104.586 9.99927 104.588 11.6173C104.589 12.3732 104.594 13.1754 104.533 13.9239C104.079 13.5424 103.573 12.9417 103.148 12.5025C101.966 11.2832 100.679 10.7831 99.0127 10.7421C95.6753 10.66 93.1411 12.8693 93.1548 16.2786C93.1387 17.7563 93.7096 19.3755 94.7841 20.4017C97.0641 22.5797 101.345 22.4757 103.405 20.015C103.815 19.5247 104.219 19.0164 104.655 18.5719C104.73 19.3106 104.693 20.5645 104.691 21.3431C104.695 22.9033 104.743 24.4311 103.656 25.6853C102.596 26.9077 100.736 27.2799 99.1981 27.373C95.9756 27.5637 92.5604 26.7569 90.1078 24.5665C85.6519 20.5871 85.3156 13.115 89.3722 8.73246C91.836 6.07082 94.7145 5.16985 98.2406 5.00349Z" fill="#252532"/>
<path d="M81.8321 5.5C84.0911 5.41499 86.8805 5.48444 89.1848 5.46866C88.7202 6.38184 87.7186 7.93249 87.1656 8.83745L83.7624 14.4132L81.3776 18.3314L77 27C74.8839 27.0158 72.1162 27.016 70 27L75 18C75 18 72.8106 14.5949 71.7625 12.8267C70.3019 10.366 68.8142 7.92138 67.2998 5.49344C68.9835 5.45866 70.6819 5.49856 72.367 5.47533C73.053 5.46577 73.7976 5.46466 74.4788 5.5249C75.4141 7.50152 76.5054 9.4329 77.4794 11.3936C77.685 11.8075 77.9088 12.2211 78.1332 12.6253C79.368 10.3246 80.6389 7.82669 81.8321 5.5Z" fill="#252532"/>
<path d="M0.04094 5.52003C0.924951 5.49269 1.8994 5.50947 2.79052 5.50625C6.19925 5.47769 9.60812 5.47947 13.0169 5.51158C13.0399 7.27416 13.0264 9.06196 13.0274 10.8264L6.02131 10.8179L6.02252 13.6633L6.02577 18.7187C6.00734 21.4489 6.06205 24.202 6.05316 26.9389C4.06393 26.9073 2.01456 26.9297 0.0204692 26.9267C0.0246923 19.8161 -0.0399207 12.6229 0.04094 5.52003Z" fill="#252532"/>
<path d="M110 0C112.761 0 115 2.23858 115 5C115 7.76142 112.761 10 110 10C107.239 10 105 7.76142 105 5C105 2.23858 107.239 0 110 0ZM110 3.33301C109.08 3.33301 108.333 4.07953 108.333 5C108.333 5.92047 109.08 6.66699 110 6.66699C110.92 6.66699 111.667 5.92047 111.667 5C111.667 4.07953 110.92 3.33301 110 3.33301Z" fill="#252532"/>
</mask>
<g mask="url(#mask1_1872_179)">
<rect x="-2" y="-3" width="118" height="32" fill="url(#paint1_linear_1872_179)"/>
</g>
<path d="M56.5557 10.6499C58.3734 10.6593 60.7927 10.6868 62.165 12.0272C64.2433 14.0571 64.2826 18.3118 62.2967 20.4122C60.7183 21.8445 58.5876 21.7422 56.5666 21.7568L56.5557 10.6499Z" fill="#FEFEFE"/>
<path d="M40.5476 11.0173C40.5588 11.0277 40.5701 11.0381 40.5814 11.0486C41.3905 13.3125 42.257 15.5829 43.0236 17.8625C43.5371 19.3895 41.9281 20.3719 40.5778 20.4545C39.5419 20.4207 38.7081 20.0473 38.2042 19.0785C38.111 18.8938 37.9652 18.4242 38.012 18.221C38.2131 17.3459 38.6102 16.4067 38.9177 15.5645L40.5476 11.0173Z" fill="#FEFEFE"/>
<path d="M20.8486 10.7023C22.5247 10.6611 25.3997 10.3289 25.5767 12.7306C25.6356 13.5307 25.4776 14.0133 24.9665 14.6291C23.9098 15.4931 22.2259 15.2648 20.8619 15.2462L20.8486 10.7023Z" fill="#FEFEFE"/>
<defs>
<linearGradient id="paint0_linear_1872_179" x1="-2" y1="13" x2="116" y2="13" gradientUnits="userSpaceOnUse">
<stop stop-color="#12C2E9"/>
<stop offset="0.5" stop-color="#C471ED"/>
<stop offset="1" stop-color="#F64F59"/>
</linearGradient>
<linearGradient id="paint1_linear_1872_179" x1="-2" y1="13" x2="116" y2="13" gradientUnits="userSpaceOnUse">
<stop stop-color="#12C2E9"/>
<stop offset="0.5" stop-color="#C471ED"/>
<stop offset="1" stop-color="#F64F59"/>
</linearGradient>
</defs>
</svg>
