<svg width="18" height="18" viewBox="0 0 18 18" fill="none" xmlns="http://www.w3.org/2000/svg">
<path d="M9.00001 6.75527C8.25823 6.75513 7.53307 6.97499 6.91626 7.38703C6.29945 7.79908 5.81869 8.3848 5.5348 9.07011C5.25092 9.75542 5.17666 10.5095 5.32141 11.2371C5.46616 11.9646 5.82342 12.6328 6.34801 13.1573L9.00001 15.9L11.6573 13.1483C12.1791 12.623 12.5338 11.9551 12.6766 11.2286C12.8194 10.5021 12.7439 9.74964 12.4598 9.06596C12.1756 8.38228 11.6954 7.79803 11.0797 7.38682C10.464 6.97561 9.7404 6.75587 9.00001 6.75527ZM9.00001 11.9955C8.70334 11.9955 8.41333 11.9075 8.16666 11.7427C7.91998 11.5779 7.72773 11.3436 7.61419 11.0695C7.50066 10.7955 7.47096 10.4939 7.52884 10.2029C7.58671 9.91191 7.72957 9.64464 7.93935 9.43486C8.14913 9.22508 8.41641 9.08222 8.70738 9.02434C8.99835 8.96646 9.29995 8.99617 9.57404 9.1097C9.84813 9.22323 10.0824 9.41549 10.2472 9.66216C10.412 9.90884 10.5 10.1988 10.5 10.4955C10.5 10.8933 10.342 11.2749 10.0607 11.5562C9.77937 11.8375 9.39784 11.9955 9.00001 11.9955ZM17.1368 5.76077L10.3868 0.477769C9.99078 0.167578 9.50228 -0.000976563 8.99926 -0.000976562C8.49625 -0.000976562 8.00775 0.167578 7.61176 0.477769L0.861763 5.75927C0.592368 5.96963 0.374661 6.23883 0.225298 6.54626C0.0759352 6.8537 -0.0011252 7.19122 1.24146e-05 7.53302V18H18V7.53302C18.0009 7.19132 17.9236 6.85396 17.774 6.54676C17.6243 6.23957 17.4064 5.97071 17.1368 5.76077ZM12.7118 14.2178L9.07876 17.925L5.29351 14.2238C4.5579 13.4905 4.05634 12.5554 3.8523 11.537C3.64826 10.5185 3.75091 9.46242 4.14726 8.50232C4.54361 7.54223 5.21585 6.72128 6.07891 6.14335C6.94197 5.56542 7.95707 5.25649 8.99576 5.25565C10.0345 5.25481 11.0501 5.5621 11.914 6.13863C12.778 6.71516 13.4516 7.53502 13.8495 8.49448C14.2474 9.45393 14.3518 10.5099 14.1494 11.5286C13.947 12.5474 13.4469 13.4833 12.7125 14.2178H12.7118Z" fill="#252532"/>
</svg>
