<svg width="75" height="18" viewBox="0 0 75 18" fill="none" xmlns="http://www.w3.org/2000/svg">
<mask id="mask0_2445_716" style="mask-type:alpha" maskUnits="userSpaceOnUse" x="0" y="0" width="75" height="18">
<path d="M36.0412 3.61685C37.9558 3.60874 39.9512 3.46455 41.7526 4.16799C44.6976 5.31801 45.9483 8.29193 45.7397 11.3199C45.5595 13.9343 44.3126 16.045 41.8782 17.0892C39.9454 17.8811 37.6573 17.6888 35.5673 17.6857C35.405 17.398 35.0906 16.6138 34.9469 16.2716L33.7814 13.4548C33.6034 13.027 32.8343 11.3707 32.8099 11.0942C32.7779 10.7316 32.8029 9.29571 32.8032 8.84197C32.81 7.10343 32.8055 5.36481 32.79 3.62634L36.0412 3.61685Z" fill="#252532"/>
<path d="M36.8838 6.99585C38.0692 7.00206 39.6471 7.02009 40.542 7.90064C41.8975 9.23421 41.923 12.0293 40.6279 13.4091C39.5985 14.35 38.209 14.2829 36.8909 14.2924L36.8838 6.99585Z" fill="#FEFEFE"/>
<path d="M24.3167 3.61714C25.7651 3.5864 27.2248 3.64342 28.6799 3.6083C30.5712 8.31857 32.5071 13.0106 34.4873 17.6837C33.1241 17.709 31.6331 17.7001 30.2694 17.6815C29.9918 17.1408 29.62 16.1296 29.36 15.5267L28.669 15.5143C26.9721 15.5293 25.1774 15.4772 23.4954 15.5283C23.2333 16.2494 22.9391 16.9607 22.6753 17.6925L18.4492 17.6869C18.5123 17.5062 18.589 17.3311 18.6617 17.1542C19.1973 15.852 19.7751 14.5676 20.3119 13.2659L22.2251 8.68259C22.9109 6.98938 23.6081 5.30085 24.3167 3.61714Z" fill="#252532"/>
<path d="M26.4418 7.23706C26.4491 7.24385 26.4565 7.25071 26.4638 7.25758C26.9915 8.74482 27.5566 10.2364 28.0566 11.7339C28.3914 12.7371 27.3421 13.3824 26.4615 13.4367C25.7859 13.4145 25.2421 13.1692 24.9135 12.5328C24.8527 12.4114 24.7576 12.1029 24.7881 11.9694C24.9193 11.3946 25.1783 10.7776 25.3788 10.2243L26.4418 7.23706Z" fill="#FEFEFE"/>
<path d="M10.0399 3.61763L14.1198 3.62223C15.8797 3.62742 18.1567 3.43949 19.5506 4.69049C21.3567 6.31127 21.3245 9.87443 19.7572 11.6481C18.7497 12.7882 17.4116 13.0328 15.9841 13.1211C15.1831 13.1254 14.3821 13.1242 13.5811 13.1175L13.5869 17.6913L9.50548 17.6886L9.49512 3.62647L10.0399 3.61763Z" fill="#252532"/>
<path d="M13.5947 7.03048C14.6878 7.00339 16.5628 6.78517 16.6782 8.36295C16.7166 8.88861 16.6136 9.20561 16.2803 9.61015C15.5911 10.1778 14.4929 10.0278 13.6034 10.0156L13.5947 7.03048Z" fill="#FEFEFE"/>
<path d="M64.0705 3.28672C65.2827 3.25963 66.7253 3.46237 67.5549 4.44784C68.2829 5.31247 68.2085 6.56865 68.2099 7.63158C68.2105 8.12818 68.2137 8.65515 68.1741 9.14693C67.8782 8.8963 67.5484 8.50169 67.2708 8.21316C66.5001 7.41211 65.6607 7.08358 64.574 7.05664C62.3975 7.00268 60.7447 8.45409 60.7537 10.6938C60.7432 11.6645 61.1155 12.7283 61.8162 13.4024C63.3032 14.8332 66.0951 14.7649 67.4385 13.1484C67.7062 12.8263 67.9696 12.4924 68.254 12.2004C68.3026 12.6856 68.2787 13.5094 68.2773 14.0209C68.2798 15.0458 68.311 16.0495 67.6019 16.8735C66.9108 17.6765 65.6979 17.921 64.6949 17.9822C62.5933 18.1074 60.366 17.5774 58.7665 16.1385C55.8605 13.5242 55.6412 8.61551 58.2868 5.73643C59.8936 3.98789 61.7708 3.39601 64.0705 3.28672Z" fill="#252532"/>
<path d="M53.3672 3.61237C54.8404 3.55652 56.6596 3.60215 58.1624 3.59178C57.8594 4.19169 57.2062 5.21037 56.8455 5.80488L54.6261 9.46785L53.0708 12.0418L50.2158 17.7366C48.8358 17.747 47.0308 17.7471 45.6506 17.7366L48.9115 11.8241C48.9115 11.8241 47.4836 9.58721 46.8001 8.42558C45.8475 6.80904 44.8773 5.20307 43.8896 3.60807C44.9877 3.58521 46.0954 3.61142 47.1944 3.59617C47.6417 3.58989 48.1273 3.58916 48.5716 3.62873C49.1816 4.92725 49.8933 6.19606 50.5285 7.48414C50.6626 7.75602 50.8085 8.02776 50.9549 8.29329C51.7602 6.78188 52.589 5.14087 53.3672 3.61237Z" fill="#252532"/>
<path d="M0.0266999 3.62606C0.603226 3.6081 1.23873 3.61912 1.81989 3.61701C4.04297 3.59824 6.26613 3.59941 8.48925 3.62051C8.50425 4.77842 8.49541 5.9529 8.49606 7.11205L3.92692 7.10643L3.92771 8.97573L3.92983 12.2968C3.91781 14.0904 3.95349 15.899 3.94769 17.697C2.65037 17.6763 1.31384 17.6909 0.0133494 17.689C0.0161036 13.0178 -0.0260351 8.29223 0.0266999 3.62606Z" fill="#252532"/>
<path d="M71.7393 0C73.5402 0 75 1.47106 75 3.28516C74.9998 5.09904 73.54 6.56934 71.7393 6.56934C69.9385 6.56928 68.4788 5.09901 68.4785 3.28516C68.4785 1.4711 69.9384 6.07422e-05 71.7393 0ZM71.7383 2.18945C71.1381 2.18947 70.6516 2.67968 70.6514 3.28418C70.6514 3.88886 71.138 4.37986 71.7383 4.37988C72.3386 4.37988 72.8252 3.88888 72.8252 3.28418C72.825 2.67967 72.3385 2.18945 71.7383 2.18945Z" fill="#252532"/>
</mask>
<g mask="url(#mask0_2445_716)">
<rect x="-1.30371" y="-1.97021" width="76.9561" height="21.0221" fill="url(#paint0_linear_2445_716)"/>
</g>
<mask id="mask1_2445_716" style="mask-type:alpha" maskUnits="userSpaceOnUse" x="0" y="0" width="75" height="18">
<path d="M36.0412 3.61685C37.9558 3.60874 39.9512 3.46455 41.7526 4.16799C44.6976 5.31801 45.9483 8.29193 45.7397 11.3199C45.5595 13.9343 44.3126 16.045 41.8782 17.0892C39.9454 17.8811 37.6573 17.6888 35.5673 17.6857C35.405 17.398 35.0906 16.6138 34.9469 16.2716L33.7814 13.4548C33.6034 13.027 32.8343 11.3707 32.8099 11.0942C32.7779 10.7316 32.8029 9.29571 32.8032 8.84197C32.81 7.10343 32.8055 5.36481 32.79 3.62634L36.0412 3.61685Z" fill="#252532"/>
<path d="M36.8838 6.99585C38.0692 7.00206 39.6471 7.02009 40.542 7.90064C41.8975 9.23421 41.923 12.0293 40.6279 13.4091C39.5985 14.35 38.209 14.2829 36.8909 14.2924L36.8838 6.99585Z" fill="#FEFEFE"/>
<path d="M24.3167 3.61714C25.7651 3.5864 27.2248 3.64342 28.6799 3.6083C30.5712 8.31857 32.5071 13.0106 34.4873 17.6837C33.1241 17.709 31.6331 17.7001 30.2694 17.6815C29.9918 17.1408 29.62 16.1296 29.36 15.5267L28.669 15.5143C26.9721 15.5293 25.1774 15.4772 23.4954 15.5283C23.2333 16.2494 22.9391 16.9607 22.6753 17.6925L18.4492 17.6869C18.5123 17.5062 18.589 17.3311 18.6617 17.1542C19.1973 15.852 19.7751 14.5676 20.3119 13.2659L22.2251 8.68259C22.9109 6.98938 23.6081 5.30085 24.3167 3.61714Z" fill="#252532"/>
<path d="M26.4418 7.23706C26.4491 7.24385 26.4565 7.25071 26.4638 7.25758C26.9915 8.74482 27.5566 10.2364 28.0566 11.7339C28.3914 12.7371 27.3421 13.3824 26.4615 13.4367C25.7859 13.4145 25.2421 13.1692 24.9135 12.5328C24.8527 12.4114 24.7576 12.1029 24.7881 11.9694C24.9193 11.3946 25.1783 10.7776 25.3788 10.2243L26.4418 7.23706Z" fill="#FEFEFE"/>
<path d="M10.0399 3.61763L14.1198 3.62223C15.8797 3.62742 18.1567 3.43949 19.5506 4.69049C21.3567 6.31127 21.3245 9.87443 19.7572 11.6481C18.7497 12.7882 17.4116 13.0328 15.9841 13.1211C15.1831 13.1254 14.3821 13.1242 13.5811 13.1175L13.5869 17.6913L9.50548 17.6886L9.49512 3.62647L10.0399 3.61763Z" fill="#252532"/>
<path d="M13.5947 7.03048C14.6878 7.00339 16.5628 6.78517 16.6782 8.36295C16.7166 8.88861 16.6136 9.20561 16.2803 9.61015C15.5911 10.1778 14.4929 10.0278 13.6034 10.0156L13.5947 7.03048Z" fill="#FEFEFE"/>
<path d="M64.0705 3.28672C65.2827 3.25963 66.7253 3.46237 67.5549 4.44784C68.2829 5.31247 68.2085 6.56865 68.2099 7.63158C68.2105 8.12818 68.2137 8.65515 68.1741 9.14693C67.8782 8.8963 67.5484 8.50169 67.2708 8.21316C66.5001 7.41211 65.6607 7.08358 64.574 7.05664C62.3975 7.00268 60.7447 8.45409 60.7537 10.6938C60.7432 11.6645 61.1155 12.7283 61.8162 13.4024C63.3032 14.8332 66.0951 14.7649 67.4385 13.1484C67.7062 12.8263 67.9696 12.4924 68.254 12.2004C68.3026 12.6856 68.2787 13.5094 68.2773 14.0209C68.2798 15.0458 68.311 16.0495 67.6019 16.8735C66.9108 17.6765 65.6979 17.921 64.6949 17.9822C62.5933 18.1074 60.366 17.5774 58.7665 16.1385C55.8605 13.5242 55.6412 8.61551 58.2868 5.73643C59.8936 3.98789 61.7708 3.39601 64.0705 3.28672Z" fill="#252532"/>
<path d="M53.3672 3.61237C54.8404 3.55652 56.6596 3.60215 58.1624 3.59178C57.8594 4.19169 57.2062 5.21037 56.8455 5.80488L54.6261 9.46785L53.0708 12.0418L50.2158 17.7366C48.8358 17.747 47.0308 17.7471 45.6506 17.7366L48.9115 11.8241C48.9115 11.8241 47.4836 9.58721 46.8001 8.42558C45.8475 6.80904 44.8773 5.20307 43.8896 3.60807C44.9877 3.58521 46.0954 3.61142 47.1944 3.59617C47.6417 3.58989 48.1273 3.58916 48.5716 3.62873C49.1816 4.92725 49.8933 6.19606 50.5285 7.48414C50.6626 7.75602 50.8085 8.02776 50.9549 8.29329C51.7602 6.78188 52.589 5.14087 53.3672 3.61237Z" fill="#252532"/>
<path d="M0.0266999 3.62606C0.603226 3.6081 1.23873 3.61912 1.81989 3.61701C4.04297 3.59824 6.26613 3.59941 8.48925 3.62051C8.50425 4.77842 8.49541 5.9529 8.49606 7.11205L3.92692 7.10643L3.92771 8.97573L3.92983 12.2968C3.91781 14.0904 3.95349 15.899 3.94769 17.697C2.65037 17.6763 1.31384 17.6909 0.0133494 17.689C0.0161036 13.0178 -0.0260351 8.29223 0.0266999 3.62606Z" fill="#252532"/>
<path d="M71.7393 0C73.5402 0 75 1.47106 75 3.28516C74.9998 5.09904 73.54 6.56934 71.7393 6.56934C69.9385 6.56928 68.4788 5.09901 68.4785 3.28516C68.4785 1.4711 69.9384 6.07422e-05 71.7393 0ZM71.7383 2.18945C71.1381 2.18947 70.6516 2.67968 70.6514 3.28418C70.6514 3.88886 71.138 4.37986 71.7383 4.37988C72.3386 4.37988 72.8252 3.88888 72.8252 3.28418C72.825 2.67967 72.3385 2.18945 71.7383 2.18945Z" fill="#252532"/>
</mask>
<g mask="url(#mask1_2445_716)">
<rect x="-0.943359" y="-1.90088" width="77.3727" height="20.9101" fill="#252532"/>
</g>
<path d="M36.8838 6.99585C38.0692 7.00206 39.6471 7.02009 40.542 7.90064C41.8975 9.23421 41.923 12.0293 40.6279 13.4091C39.5985 14.35 38.209 14.2829 36.8909 14.2924L36.8838 6.99585Z" fill="#FEFEFE"/>
<path d="M26.4418 7.23706C26.4491 7.24385 26.4565 7.25071 26.4638 7.25758C26.9915 8.74482 27.5566 10.2364 28.0566 11.7339C28.3914 12.7371 27.3421 13.3824 26.4615 13.4367C25.7859 13.4145 25.2421 13.1692 24.9135 12.5328C24.8527 12.4114 24.7576 12.1029 24.7881 11.9694C24.9193 11.3946 25.1783 10.7776 25.3788 10.2243L26.4418 7.23706Z" fill="#FEFEFE"/>
<path d="M13.5947 7.03048C14.6878 7.00339 16.5628 6.78517 16.6782 8.36295C16.7166 8.88861 16.6136 9.20561 16.2803 9.61015C15.5911 10.1778 14.4929 10.0278 13.6034 10.0156L13.5947 7.03048Z" fill="#FEFEFE"/>
<defs>
<linearGradient id="paint0_linear_2445_716" x1="-1.30371" y1="8.54085" x2="75.6524" y2="8.54085" gradientUnits="userSpaceOnUse">
<stop stop-color="#12C2E9"/>
<stop offset="0.5" stop-color="#C471ED"/>
<stop offset="1" stop-color="#F64F59"/>
</linearGradient>
</defs>
</svg>
