<svg width="11" height="11" viewBox="0 0 11 11" fill="none" xmlns="http://www.w3.org/2000/svg">
<rect x="0.204102" width="10.5878" height="10.5874" rx="5.29368" fill="#2F2E2D"/>
<path d="M8.57505 3.68023C8.53244 3.63936 8.48175 3.60693 8.4259 3.5848C8.37004 3.56266 8.31014 3.55127 8.24963 3.55127C8.18913 3.55127 8.12922 3.56266 8.07337 3.5848C8.01751 3.60693 7.96682 3.63936 7.92421 3.68023L4.50963 6.9325L3.07505 5.56358C3.03081 5.52293 2.97859 5.49097 2.92136 5.46952C2.86414 5.44807 2.80303 5.43755 2.74153 5.43856C2.68003 5.43957 2.61934 5.4521 2.56293 5.47542C2.50652 5.49874 2.45549 5.5324 2.41276 5.57448C2.37002 5.61656 2.33642 5.66623 2.31387 5.72066C2.29132 5.7751 2.28026 5.83322 2.28132 5.89172C2.28238 5.95022 2.29555 6.00794 2.32007 6.0616C2.34459 6.11526 2.37998 6.16379 2.42421 6.20444L4.18421 7.87853C4.22682 7.9194 4.27751 7.95183 4.33337 7.97396C4.38922 7.9961 4.44913 8.00749 4.50963 8.00749C4.57014 8.00749 4.63004 7.9961 4.6859 7.97396C4.74175 7.95183 4.79244 7.9194 4.83505 7.87853L8.57505 4.32109C8.62157 4.28027 8.6587 4.23072 8.68409 4.17557C8.70949 4.12042 8.7226 4.06086 8.7226 4.00066C8.7226 3.94045 8.70949 3.8809 8.68409 3.82575C8.6587 3.7706 8.62157 3.72105 8.57505 3.68023Z" fill="white"/>
</svg>
