<svg width="18" height="18" viewBox="0 0 18 18" fill="none" xmlns="http://www.w3.org/2000/svg">
<path d="M17.2239 8.24986C17.0249 8.24986 16.8342 8.17084 16.6935 8.03019C16.5529 7.88953 16.4739 7.69877 16.4739 7.49986C16.4723 5.90904 15.8396 4.38384 14.7147 3.25897C13.5899 2.13409 12.0647 1.50144 10.4739 1.49986C10.2749 1.49986 10.0842 1.42084 9.94353 1.28019C9.80287 1.13953 9.72386 0.948767 9.72386 0.749855C9.72386 0.550943 9.80287 0.360177 9.94353 0.219525C10.0842 0.0788726 10.2749 -0.000145095 10.4739 -0.000145095C12.4623 0.0020386 14.3687 0.792916 15.7747 2.19897C17.1808 3.60502 17.9717 5.5114 17.9739 7.49986C17.9739 7.69877 17.8948 7.88953 17.7542 8.03019C17.6135 8.17084 17.4228 8.24986 17.2239 8.24986ZM14.9739 7.49986C14.9739 6.30638 14.4998 5.16179 13.6558 4.31787C12.8119 3.47396 11.6673 2.99986 10.4739 2.99986C10.2749 2.99986 10.0842 3.07887 9.94353 3.21953C9.80287 3.36018 9.72386 3.55094 9.72386 3.74986C9.72386 3.94877 9.80287 4.13953 9.94353 4.28019C10.0842 4.42084 10.2749 4.49986 10.4739 4.49986C11.2695 4.49986 12.0326 4.81593 12.5952 5.37853C13.1578 5.94114 13.4739 6.70421 13.4739 7.49986C13.4739 7.69877 13.5529 7.88953 13.6935 8.03019C13.8342 8.17084 14.0249 8.24986 14.2239 8.24986C14.4228 8.24986 14.6135 8.17084 14.7542 8.03019C14.8948 7.88953 14.9739 7.69877 14.9739 7.49986ZM16.6111 16.6229L17.2936 15.8361C17.728 15.4003 17.9719 14.8101 17.9719 14.1947C17.9719 13.5794 17.728 12.9892 17.2936 12.5534C17.2704 12.5301 15.4659 11.1419 15.4659 11.1419C15.0328 10.7296 14.4575 10.5001 13.8596 10.5009C13.2617 10.5017 12.687 10.7329 12.2551 11.1464L10.8256 12.3509C9.65874 11.8679 8.59877 11.1592 7.70657 10.2655C6.81437 9.37175 6.10752 8.31056 5.62661 7.14286L6.82661 5.71786C7.24039 5.28598 7.47183 4.71126 7.47281 4.11316C7.47378 3.51505 7.24423 2.93958 6.83186 2.50636C6.83186 2.50636 5.44211 0.704105 5.41886 0.680855C4.99094 0.250166 4.41077 0.00512142 3.80368 -0.00133401C3.19658 -0.00778943 2.61133 0.224863 2.17435 0.646355L1.31185 1.39636C-3.78365 7.30786 7.18885 18.1956 13.2954 17.9999C13.912 18.0034 14.5231 17.8834 15.0926 17.6469C15.6621 17.4104 16.1784 17.0622 16.6111 16.6229Z" fill="#252532"/>
</svg>
